<svg width="115" height="115" viewBox="0 0 115 115" fill="none" xmlns="http://www.w3.org/2000/svg">
<rect x="1" y="1" width="113" height="113" rx="10" fill="black" stroke="white" stroke-width="2"/>
<path d="M20.2969 19.8721L64.0777 12.5753L93.6941 17.726L99.7032 103.571L16.4338 99.7077L20.2969 19.8721Z" fill="white"/>
<path fill-rule="evenodd" clip-rule="evenodd" d="M13 10V102.712L100.132 104L97.1278 10H13ZM64.3201 53.9474C65.4233 59.1953 58.8881 63.7456 58.8881 63.7456C58.8881 63.7456 60.8779 59.7471 60.1566 57.3893C59.4211 55.0316 54.8896 52.6741 54.8896 45.3986C54.8896 38.1419 71.5956 31.7905 71.5956 31.7905C71.5956 31.7905 63.0141 38.2551 61.0616 41.7727C58.1478 47.0394 63.2356 48.6804 64.3201 53.9474ZM43.9879 41.0511C48.1656 31.9742 58.8881 28.8764 61.7786 23.6282C64.6878 18.3615 63.6034 13.2785 63.6034 13.2785C63.6034 13.2785 68.5026 20.1672 64.1361 27.259C59.7698 34.3317 48.6656 39.2121 48.5334 44.1302C48.3493 51.0379 53.2486 60.4684 53.2486 60.4684C53.2486 60.4684 39.8245 50.1326 43.9879 41.0511ZM29.8422 64.8301C30.9267 61.5531 43.9879 61.5531 43.9879 61.5531C43.9879 61.5531 35.6419 63.1939 35.8259 65.1981C36.0097 67.1878 62.5141 67.3718 72.496 64.6463C72.496 64.6463 66.8803 69.5126 51.4474 70.0641C36.0097 70.6155 28.7532 68.0928 29.8422 64.8301ZM42.5499 82.625C42.9177 83.4691 52.1075 84.5584 56.5824 83.9501C61.0619 83.3417 63.9714 82.7337 63.9714 82.7337L68.5547 85.5345C68.5547 85.5345 61.4299 88.9059 51.2591 88.2976C41.0932 87.7083 38.3111 85.7561 38.5517 83.5826C38.792 81.4086 42.918 81.3002 42.918 81.3002C42.918 81.3002 42.1822 81.7763 42.5499 82.625ZM47.2461 78.6268C36.618 77.8913 31.6434 74.0956 40.7249 71.9028C40.7249 71.9028 38.7352 72.6431 39.4567 73.9116C40.1734 75.1846 49.3257 75.8447 56.8794 75.0006C62.5144 74.3734 66.3286 73.3598 66.3286 73.3598L69.9545 75.9013C69.9545 75.9013 56.3797 79.2539 47.2461 78.6268ZM22.6942 91.0984C23.0619 87.9486 34.6849 87.7083 35.6422 87.5811C35.6422 87.5811 27.2962 89.0333 27.7771 90.8581C28.2581 92.6641 43.6347 94.7246 57.7804 93.9889C71.9448 93.2722 80.7857 90.8581 81.7621 89.882C82.7191 88.925 81.9836 88.076 81.9836 88.076C81.9836 88.076 84.0487 89.4011 82.4836 91.0984C80.9182 92.7912 71.3368 96.771 49.5666 96.7897C27.7769 96.7897 22.3264 94.2483 22.6942 91.0984ZM75.8299 99.6802C54.2813 103.438 35.4016 98.9447 35.4016 98.9447C35.4016 98.9447 64.4472 100.161 74.0096 98.2422C83.5675 96.29 86.7171 92.8999 86.7171 92.8999C86.7171 92.8999 86.1278 97.8742 75.8299 99.6802ZM73.7693 77.7261C73.7693 77.7261 83.9352 71.0023 83.1995 66.4708C82.4828 61.9396 75.0375 61.9396 75.0375 61.9396C75.0375 61.9396 85.576 56.3049 87.3817 66.2871C88.8723 74.5008 73.7693 77.7261 73.7693 77.7261Z" fill="black"/>
</svg>
