<svg width="115" height="115" viewBox="0 0 115 115" fill="none" xmlns="http://www.w3.org/2000/svg">
<rect x="1" y="1" width="113" height="113" rx="10" fill="black" stroke="white" stroke-width="2"/>
<path d="M14.1849 43.6673L14.164 43.6482L14.1435 43.6332C14.1438 43.6334 14.1436 43.6333 14.1429 43.6328L14.1427 43.6326L14.1337 43.6256C14.1241 43.618 14.1082 43.605 14.0875 43.587C14.0459 43.5507 13.9863 43.4948 13.9207 43.4218C13.787 43.2729 13.6429 43.0686 13.563 42.826C13.4861 42.5924 13.4646 42.3135 13.5848 41.985C13.7077 41.6486 13.9928 41.224 14.5952 40.7356L14.6056 40.7272L14.6156 40.7182L20.6761 35.2403L20.6912 35.2267L20.7038 35.2134L20.7041 35.2131L20.7041 35.213L20.7041 35.213L20.7048 35.2123L20.7139 35.2031C20.723 35.194 20.7382 35.1792 20.7589 35.1599C20.8006 35.1213 20.8641 35.0655 20.9462 35.002C21.1124 34.8736 21.3452 34.7214 21.6199 34.6136C21.8932 34.5062 22.1965 34.4471 22.515 34.4873C22.8286 34.5269 23.1895 34.6666 23.579 35.008L23.5915 35.019L23.6047 35.0291L79.3357 77.6793L79.3357 97.9506L79.3357 97.9507L79.335 97.9665C79.3342 97.9825 79.3325 98.0088 79.329 98.0439C79.322 98.1143 79.3078 98.2186 79.2796 98.3444C79.2228 98.5981 79.1116 98.9266 78.8974 99.2414C78.5065 99.8155 77.7012 100.45 75.9273 100.337L14.1849 43.6673Z" fill="black" stroke="white"/>
<path d="M14.1483 70.911C14.1492 70.9103 14.1499 70.9097 14.1504 70.9093L14.1668 70.897L14.1849 70.8803L28.2621 57.9441L38.9829 67.7847L24.1733 79.1355L24.1649 79.1419L24.1568 79.1487C23.0975 80.0341 22.2789 80.0446 21.7578 79.9043C21.482 79.83 21.263 79.7061 21.1128 79.6001C21.0383 79.5475 20.9825 79.5005 20.9472 79.4687C20.9296 79.4529 20.9173 79.4409 20.9106 79.4342L20.9049 79.4285L20.9048 79.4284L20.9046 79.4281L20.8931 79.4156L20.8778 79.4016L14.2205 73.281C13.5948 72.422 13.6413 71.8299 13.7629 71.4836C13.8302 71.2918 13.9323 71.143 14.0185 71.042C14.0612 70.992 14.0985 70.9555 14.123 70.9331C14.1352 70.922 14.1439 70.9146 14.1483 70.911Z" fill="black" stroke="white"/>
<path d="M40.5353 46.7491L75.2417 14.8198C76.0933 14.3045 76.7399 14.1996 77.2218 14.269C77.7119 14.3396 78.1077 14.6017 78.4302 14.9545C78.7557 15.3106 78.988 15.7404 79.1404 16.0933C79.2156 16.2675 79.2691 16.4178 79.3034 16.523C79.3171 16.565 79.3277 16.5996 79.3353 16.6255L79.5043 36.7252L53.5683 56.7435L40.5353 46.7491Z" fill="black" stroke="white"/>
<path d="M77.0874 101.226C77.6232 101.18 78.0806 101.057 78.4708 100.87C79.2137 100.514 79.6585 99.9561 79.9313 99.3996L79.9337 99.3945C80.2024 98.8305 80.3346 98.2087 80.3346 97.5819V16.555V16.4689L80.3058 16.3877C79.8822 15.1947 79.3287 14.4029 78.6969 13.915C78.4697 13.7396 78.2374 13.6074 78.0048 13.5106C78.8647 13.4486 79.9173 13.6456 81.132 14.4044L81.1543 14.4184L81.1779 14.4299L99.0354 23.1306L99.0634 23.1442L99.0915 23.1538L99.0917 23.1539L99.0922 23.154L99.0925 23.1542L99.0929 23.1543L99.094 23.1547L99.1098 23.1605C99.1249 23.1662 99.1492 23.1755 99.1812 23.1887C99.2453 23.2151 99.3399 23.2567 99.4549 23.3148C99.686 23.4318 99.993 23.6126 100.298 23.8672C100.905 24.3741 101.482 25.1513 101.482 26.3056V87.5846V87.6254L101.488 87.6622L101.488 87.6624L101.489 87.6637L101.489 87.6646L101.489 87.6651L101.489 87.6657L101.489 87.671C101.491 87.6808 101.493 87.6984 101.494 87.7232C101.498 87.7727 101.502 87.8506 101.499 87.9519C101.494 88.1545 101.463 88.4487 101.359 88.7957C101.155 89.4759 100.661 90.3888 99.4599 91.2252L78.94 101.445C78.9362 101.446 78.9321 101.447 78.9278 101.448C78.8862 101.457 78.8213 101.468 78.7372 101.479C78.5683 101.499 78.3259 101.512 78.0413 101.483C77.7562 101.453 77.4284 101.38 77.0874 101.226Z" fill="white" stroke="white"/>
</svg>
