<svg width="129" height="130" viewBox="0 0 129 130" fill="none" xmlns="http://www.w3.org/2000/svg">
<path d="M56.813 128.586C54.91 128.359 52.914 128.066 52.379 127.934C51.5917 127.747 50.7997 127.581 50.004 127.434C49.0952 127.258 48.1935 127.047 47.301 126.801C43.156 125.613 42.859 125.516 39.734 124.238C36.859 123.066 31.562 120.328 29.75 119.082C29.254 118.738 28.79 118.461 28.719 118.461C28.649 118.461 27.489 117.645 26.141 116.648C17.571 110.305 11.137 102.605 6.488 93.121C5.688 91.492 5.035 90.047 5.035 89.911C5.035 89.777 4.891 89.406 4.715 89.094C4.352 88.445 3.835 87.047 3.418 85.602C3.23871 84.9881 3.03014 84.383 2.793 83.789C2.598 83.329 2.441 82.769 2.441 82.543C2.441 82.316 2.246 81.578 2.008 80.898C1.77 80.223 1.578 79.426 1.578 79.128C1.578 78.832 1.391 77.808 1.16 76.852C0.598 74.492 0 68.379 0 64.953C0 61.531 0.598 55.418 1.16 53.059C1.39 52.102 1.578 51.059 1.578 50.739C1.578 50.418 1.723 49.789 1.898 49.339C2.078 48.891 2.308 48.086 2.414 47.551C2.524 47.016 2.774 46.094 2.977 45.496L3.567 43.77C4 42.477 4.402 41.383 4.594 40.957C4.704 40.719 5.133 39.747 5.551 38.797C6.227 37.262 7.676 34.367 8.523 32.852C8.832 32.297 8.949 32.113 10.621 29.5C13.27 25.352 17.797 20.191 22.011 16.512C23.496 15.215 28.457 11.449 28.68 11.449C28.742 11.449 29.21 11.168 29.723 10.824C31.07 9.92203 32.391 9.15603 34.113 8.29303C34.7311 7.98732 35.3433 7.6696 35.949 7.34003C36.234 7.17603 36.769 6.93003 39.516 5.70003C40.121 5.43003 40.773 5.18403 42.652 4.52703C43.066 4.38303 43.898 4.07803 44.492 3.85503C45.09 3.63303 45.793 3.44903 46.055 3.44903C46.313 3.44903 46.992 3.26903 47.563 3.04703C48.133 2.82403 49.168 2.57003 49.867 2.48403C50.563 2.40203 51.488 2.20703 51.922 2.05403C52.352 1.90603 53.532 1.71403 54.543 1.62903C55.8607 1.50998 57.1748 1.35492 58.484 1.16403C61.172 0.77003 67.016 0.77003 69.676 1.16403C70.9324 1.34432 72.1931 1.49271 73.457 1.60903C74.41 1.68803 75.625 1.88703 76.16 2.05103C76.695 2.21103 77.621 2.41103 78.215 2.48403C78.809 2.56303 79.809 2.80903 80.437 3.03503C81.067 3.26503 81.781 3.44903 82.027 3.44903C82.273 3.44903 82.781 3.58603 83.152 3.75803C83.527 3.92603 84.32 4.20703 84.918 4.38303C85.512 4.56303 86.531 4.91803 87.188 5.18003C87.84 5.44103 88.715 5.78503 89.133 5.94103C89.903 6.23103 95.593 9.07803 96.367 9.56303C102.648 13.48 105.879 16.039 110.223 20.527C115.461 25.941 118.938 31.097 122.477 38.687C122.727 39.223 123.109 40.016 123.328 40.445C123.543 40.879 123.723 41.387 123.723 41.575C123.723 41.765 123.903 42.335 124.125 42.844C124.727 44.227 125.242 45.801 125.485 47.004C125.605 47.594 125.828 48.324 125.98 48.625C126.133 48.925 126.312 49.688 126.383 50.313C126.453 50.937 126.66 51.961 126.836 52.582C127.856 56.113 128.363 66.516 127.746 71.117C127.563 72.484 127.356 74.137 127.286 74.789C127.168 75.906 126.578 78.793 126.074 80.734L125.554 82.789C124.574 86.746 122.152 92.383 119.195 97.598C118.023 99.668 114.094 105.266 113.352 105.922C113.285 105.98 112.953 106.372 112.617 106.785C112.281 107.203 111.203 108.371 110.227 109.379C105.926 113.82 102.457 116.566 96.367 120.348C95.645 120.797 89.52 123.789 88.375 124.254C87.781 124.492 86.789 124.894 86.172 125.144C85.559 125.391 84.875 125.598 84.66 125.602C84.445 125.605 83.879 125.797 83.402 126.027C82.926 126.257 82.32 126.449 82.051 126.453C81.785 126.457 81.008 126.645 80.324 126.871C79.641 127.101 78.691 127.348 78.214 127.421C77.738 127.496 76.719 127.699 75.945 127.871C75.172 128.043 72.835 128.379 70.758 128.617C66.1248 129.157 61.4438 129.147 56.813 128.586ZM61.516 116.086C61.816 115.852 62.125 115.386 62.207 115.059C62.387 114.336 91.441 56.089 91.988 55.359C92.449 54.742 92.492 53.754 92.07 53.406C91.848 53.219 89.066 53.16 81.64 53.172C76.07 53.184 71.387 53.188 71.234 53.184C71.008 53.176 70.961 49.454 70.984 33.512C71 22.695 70.949 13.746 70.871 13.622C70.793 13.496 70.488 13.395 70.191 13.395C69.773 13.395 69.578 13.575 69.321 14.203C68.836 15.371 67.496 18.023 60.973 30.688C59.6181 33.3163 58.2664 35.9463 56.918 38.578C55.762 40.84 53.938 44.391 52.871 46.468C49.999 52.0513 47.133 57.6376 44.273 63.227C39.34 72.863 38.743 74.012 38.531 74.266C38.121 74.762 37.898 75.906 38.129 76.336C38.339 76.73 38.758 76.746 49.172 76.73C55.125 76.723 60.035 76.754 60.086 76.8C60.223 76.941 60.172 114.11 60.031 114.996C59.938 115.578 60 115.886 60.266 116.152C60.726 116.613 60.852 116.609 61.516 116.086Z" fill="black"/>
</svg>
