<svg width="115" height="115" viewBox="0 0 115 115" fill="none" xmlns="http://www.w3.org/2000/svg">
<rect x="1" y="1" width="113" height="113" rx="10" fill="black" stroke="white" stroke-width="2"/>
<path d="M44.5 13H66L76 29L74.5 40L81 51.5L88 63L90 75.5L93 83L97.5 88.5L88 97L79 102H70.5L66 99H56L49 101.5L29.5 101L18.5 97V82L29.5 72L35 51.5L43 43L44.5 13Z" fill="white"/>
<path fill-rule="evenodd" clip-rule="evenodd" d="M37.5943 79.6432C36.5916 78.0846 34.1586 75.319 32.8422 76.0984C31.5066 76.8587 31.1743 79.7384 29.5205 80.7411C27.8666 81.7438 23.5611 81.7438 23.2287 83.1693C22.8913 84.5996 23.8751 85.916 23.5614 88.0355C23.2098 90.1314 21.8889 92.3411 22.7822 93.3438C23.6518 94.3273 30.4093 94.6602 33.0658 95.7768C35.7223 96.8885 41.5672 99.412 43.6628 98.7659C43.6628 98.7659 46.0056 97.3164 46.4284 95.3302C46.8752 93.3438 45.4446 91.1341 43.886 89.4661C42.3467 87.8123 38.5781 81.1639 37.5943 79.6432Z" fill="black"/>
<path fill-rule="evenodd" clip-rule="evenodd" d="M59.2022 32.9585C58.96 32.4928 58.8125 31.8987 58.8125 31.3047C58.8125 29.6749 59.8344 28.3348 61.0604 28.3348C62.3197 28.3348 63.3223 29.6746 63.3223 31.3047C63.3223 32.5499 62.7283 33.6286 61.8731 34.0514C62.2818 34.2226 62.6526 34.3888 63.0089 34.5363C64.4203 33.6809 65.3851 31.899 65.3851 29.8411C65.3851 26.9423 63.4699 24.5854 61.094 24.5854C58.7178 24.5854 56.8074 26.9423 56.8074 29.8411C56.8074 30.6917 56.9738 31.4901 57.2542 32.198C57.7911 32.4026 58.4612 32.6592 59.2022 32.9585Z" fill="black"/>
<path fill-rule="evenodd" clip-rule="evenodd" d="M48.7903 37.82C48.2296 38.7845 50.4583 40.6048 51.6463 41.384C52.8344 42.149 53.4666 42.7764 54.5787 42.6291C55.6953 42.4819 59.1835 40.329 60.7803 39.3644C62.3959 38.3807 63.0089 38.3807 63.1562 37.5967C63.2845 36.8362 61.9683 36.076 60.7803 35.6674C59.5922 35.2398 56.3798 33.8474 55.2106 33.643C54.0225 33.4243 52.0553 35.0922 51.2951 35.8005C50.5343 36.4847 48.7903 37.82 48.7903 37.82Z" fill="black"/>
<path fill-rule="evenodd" clip-rule="evenodd" d="M49.0659 35.1494C49.5317 34.8168 49.9785 34.4081 50.4584 33.9424C50.4015 33.9613 50.3493 33.9802 50.2919 33.9995C49.2892 34.1656 48.3057 33.068 48.0443 31.5475C47.8066 30.0458 48.3959 28.6867 49.3844 28.5202C50.3682 28.373 51.3709 29.4707 51.6275 30.9532C51.7606 31.7897 51.6464 32.5881 51.352 33.144C51.5371 32.9586 51.7417 32.7924 51.9601 32.607C52.4069 32.2173 52.8727 31.9751 53.3384 31.8276C53.4286 31.3619 53.4857 30.8961 53.4857 30.3973C53.4857 27.6507 51.9601 25.422 50.0879 25.422C48.2108 25.422 46.709 27.6317 46.709 30.3973C46.709 32.626 47.7117 34.5172 49.0659 35.1494Z" fill="black"/>
<path fill-rule="evenodd" clip-rule="evenodd" d="M12 12V103H103V12L12 12ZM92.7614 91.8228C89.0309 93.8994 82.3877 97.2212 79.8973 99.8588C77.4121 102.477 73.5344 102.344 71.7333 101.361C69.9322 100.396 68.9674 98.1861 68.9674 98.1861C68.9674 98.1861 63.9921 96.9457 58.7361 97.0929C53.4853 97.2212 48.4907 98.3381 48.4907 98.3381C48.4907 98.3381 47.1172 101.921 42.6789 101.361C38.2642 100.824 32.9893 97.7822 28.2941 97.2215C23.5802 96.6656 18.7521 95.7008 19.7166 92.5265C20.6815 89.352 21.5174 87.9598 20.6815 85.4743C19.8497 82.9842 19.8497 80.7601 23.2998 80.0522C26.7737 79.3821 28.703 78.3983 29.6678 76.3407C30.6513 74.2593 31.8965 73.8314 31.8965 73.8314C31.8965 73.8314 30.6516 70.9375 32.4335 67.7629C34.2535 64.5695 36.0548 56.8285 38.5401 53.0789C41.0301 49.3484 44.7795 44.8957 45.3165 43.6697C45.8534 42.4627 46.0055 39.103 45.7251 34.4078C45.4448 29.6888 43.6626 19.7429 49.4748 15.7319C55.2866 11.7213 66.069 11.1652 70.2273 20.5743C74.3853 29.9694 70.5076 37.3209 75.0743 43.6886C79.641 50.0374 85.5811 58.4821 87.3822 63.7329C89.1833 69.0078 87.2491 75.3756 87.2491 75.3756C87.2491 75.3756 89.4588 77.3049 89.3305 80.1989C89.1833 83.1168 91.1126 84.6375 93.4696 85.602C95.8265 86.5672 96.5155 89.7414 92.7614 91.8228Z" fill="black"/>
<path fill-rule="evenodd" clip-rule="evenodd" d="M74.4993 74.9482C74.4993 74.9482 75.8917 70.5096 75.0552 64.7025C74.2189 58.8907 65.9218 40.6427 64.957 39.8064C63.9922 38.9747 57.4772 43.8169 54.5785 44.6534C51.6843 45.4707 47.5262 40.4954 47.5262 40.4954C48.2104 42.572 46.7089 47.2718 44.7604 49.4767C42.831 51.6864 41.5861 58.3348 39.6567 61.376C37.7036 64.4219 36.4632 70.5096 37.984 74.1114C39.5047 77.7136 47.9541 81.7243 48.3628 84.6185C48.7714 87.5317 45.8727 87.9593 45.8727 87.9593L49.6031 92.2315C49.6031 92.2315 52.9294 92.9346 59.5733 91.97C66.2166 90.9866 70.508 85.0464 70.508 85.0464C70.508 85.0464 70.508 77.9894 70.9166 76.0411C71.3247 74.1117 74.4993 74.9482 74.4993 74.9482Z" fill="black"/>
<path fill-rule="evenodd" clip-rule="evenodd" d="M89.3491 85.8637C87.7335 85.0083 86.878 82.5419 86.9922 80.8121C87.1013 79.106 86.0228 78.5693 86.0228 78.5693C86.0228 78.5693 85.2626 80.166 84.1884 81.24C83.1097 82.3187 79.565 83.8205 77.0983 82.7417C74.6272 81.6678 75.0548 77.5858 75.0548 77.5858C75.0548 77.5858 74.1993 77.3815 73.6624 77.8046C73.1254 78.2321 73.5485 81.1309 73.6624 83.2838C73.7718 85.4364 73.1254 89.205 72.3604 92.6407C71.6191 96.0908 73.1254 98.4477 74.8502 98.9847C76.5563 99.5264 79.3601 97.6875 81.4938 95.4396C83.6464 93.1776 90.8507 90.2789 92.1526 89.0908C93.4312 87.9025 90.9648 86.7144 89.3491 85.8637Z" fill="black"/>
</svg>
