<svg width="115" height="115" viewBox="0 0 115 115" fill="none" xmlns="http://www.w3.org/2000/svg">
<rect x="1" y="1" width="113" height="113" rx="10" fill="black" stroke="white" stroke-width="2"/>
<path d="M46.4309 13.3589L46.4307 13.3589C41.9721 14.1465 39.4624 15.3471 38.0468 17.0071C36.6373 18.66 36.2281 20.8668 36.2281 23.9044V31.4964H56.9603H57.4603V31.9964V34.6938V35.1938H56.9603H27.759C21.813 35.1938 16.6162 38.7505 14.9813 45.5764L14.9811 45.5771C14.0112 49.599 13.5107 52.8413 13.5002 56.1167C13.4896 59.392 13.9688 62.7231 14.9811 66.9214L14.9812 66.9219C15.7224 70.0095 16.9683 72.6082 18.7467 74.4288C20.5139 76.2379 22.8289 77.303 25.7796 77.303H32.5806V68.1022C32.5806 60.8186 38.8661 54.4122 46.3446 54.4122H67.5527C73.1705 54.4122 77.6684 49.7844 77.6684 44.1228V23.9053C77.6684 18.4661 73.0683 14.2939 67.4705 13.3606C63.8514 12.7586 60.0957 12.4845 56.4923 12.5007L46.4309 13.3589ZM46.4309 13.3589C49.4511 12.8243 52.8877 12.5178 56.4922 12.5007L46.4309 13.3589ZM45.0075 18.0089C47.4846 18.0089 49.4921 20.0614 49.4921 22.5682C49.4921 25.069 47.482 27.1009 45.0075 27.1009C42.5246 27.1009 40.524 25.0684 40.5239 22.5684L45.0075 18.0089ZM45.0075 18.0089C42.5213 18.0089 40.523 20.062 40.5239 22.5682L45.0075 18.0089Z" fill="white" stroke="black"/>
<path d="M67.4129 98.9015L67.4128 98.9016C59.4695 101.206 53.1216 100.852 46.485 98.9021C40.9132 97.2642 36.2283 93.9866 36.2283 88.5933V68.374C36.2283 62.8221 40.8212 58.0838 46.3439 58.0838H67.5521C74.8981 58.0838 81.3161 51.7041 81.3161 44.1229V35.1937L88.7851 35.1929C91.7302 35.1929 93.8667 36.2859 95.4637 38.1023C97.0785 39.939 98.1629 42.5412 98.9172 45.5796L98.9173 45.5797C101.023 54.0497 101.106 60.3447 98.9282 66.8797L98.928 66.8802C97.8556 70.1084 96.7684 72.7151 95.2232 74.5174C93.7067 76.2863 91.7294 77.3022 88.7851 77.3022H56.9605H56.4605V77.8022V80.5004V81.0004H56.9605H77.6677V88.5933C77.6677 91.4906 76.4294 93.6697 74.5349 95.3276C72.6261 96.9981 70.05 98.1375 67.4129 98.9015ZM73.3719 89.9295C73.3719 87.4278 71.3713 85.3951 68.8874 85.3951C66.4136 85.3951 64.4037 87.4272 64.4037 89.9295C64.4037 92.4346 66.4103 94.4871 68.8874 94.4871C71.3736 94.4871 73.3719 92.434 73.3719 89.9295Z" fill="white" stroke="black"/>
</svg>
