<svg width="115" height="115" viewBox="0 0 115 115" fill="none" xmlns="http://www.w3.org/2000/svg">
<rect x="1" y="1" width="113" height="113" rx="10" fill="black" stroke="white" stroke-width="2"/>
<path d="M72.9424 66.71L72.9424 66.7101C74.3917 68.0915 74.4463 70.3858 73.0648 71.8349L73.4267 72.1799L73.0648 71.8349C69.1534 75.9377 63.6235 78.5015 57.5009 78.5015C45.6263 78.5015 36 68.8754 36 57.0008C36 45.1262 45.6263 35.4999 57.5009 35.4999C63.5976 35.4999 69.1069 38.0423 73.0154 42.1149L73.3761 41.7687L73.0154 42.1149C74.4017 43.5593 74.3543 45.8541 72.91 47.2403C71.4655 48.6266 69.1708 48.5794 67.7845 47.1349C65.1864 44.4278 61.5426 42.7499 57.5009 42.7499C49.6303 42.7499 43.25 49.1303 43.25 57.0008C43.25 64.8714 49.6303 71.2515 57.5009 71.2515C61.5596 71.2515 65.2172 69.5597 67.8173 66.8324L67.4554 66.4874L67.8173 66.8324C69.1988 65.3834 71.4934 65.3286 72.9424 66.71Z" fill="white" stroke="white"/>
<path d="M55.225 13.5619C56.5094 12.8127 58.0976 12.8127 59.382 13.5619L85.3106 28.6869C87.2785 29.8348 87.9429 32.3606 86.7951 34.3284C85.6472 36.2963 83.1217 36.9609 81.1538 35.813L57.3035 21.9005L27.25 39.4317V74.568L57.3035 92.0992L81.1538 78.187C83.1217 77.0391 85.6472 77.7035 86.7951 79.6714C87.9429 81.6393 87.2785 84.1649 85.3106 85.3128L59.382 100.438C58.0976 101.187 56.5094 101.187 55.225 100.438L21.0465 80.5003C19.7793 79.7611 19 78.4048 19 76.9374V37.0625C19 35.5953 19.7793 34.2386 21.0465 33.4994L55.225 13.5619Z" fill="white"/>
<path d="M59.1972 13.5619C57.9039 12.8127 56.3047 12.8127 55.0114 13.5619L28.903 28.6869C26.9215 29.8348 26.2525 32.3605 27.4083 34.3284C28.5641 36.2962 31.1072 36.9609 33.0887 35.813L57.1043 21.9005L87.3662 39.4317V74.5679L57.1043 92.0991L33.0887 78.1869C31.1072 77.039 28.5641 77.7034 27.4083 79.6713C26.2525 81.6392 26.9215 84.1648 28.903 85.3127L55.0114 100.438C56.3047 101.187 57.9039 101.187 59.1972 100.438L93.6126 80.5002C94.8887 79.761 95.6733 78.4047 95.6733 76.9373V37.0624C95.6733 35.5953 94.8887 34.2386 93.6126 33.4994L59.1972 13.5619Z" fill="white"/>
</svg>
