<svg width="115" height="115" viewBox="0 0 115 115" fill="none" xmlns="http://www.w3.org/2000/svg">
<path d="M104 1H11C5.47715 1 1 5.47715 1 11V104C1 109.523 5.47715 114 11 114H104C109.523 114 114 109.523 114 104V11C114 5.47715 109.523 1 104 1Z" fill="black" stroke="white" stroke-width="2"/>
<mask id="path-2-inside-1_393_27" fill="white">
<path d="M52.386 102.696C51.0332 102.534 49.6143 102.326 49.234 102.233C48.6743 102.1 48.1114 101.982 47.5457 101.878C46.8997 101.752 46.2588 101.602 45.6243 101.428C42.6778 100.584 42.4667 100.516 40.2452 99.608C38.2015 98.7757 34.4361 96.8314 33.148 95.9465C32.7954 95.7023 32.4656 95.5056 32.4151 95.5056C32.3654 95.5056 31.5408 94.9261 30.5825 94.2181C24.4905 89.7138 19.9168 84.2458 16.612 77.511C16.0434 76.3542 15.5792 75.328 15.5792 75.2314C15.5792 75.1363 15.4768 74.8728 15.3517 74.6513C15.0937 74.1904 14.7261 73.1976 14.4297 72.1715C14.3023 71.7355 14.154 71.3059 13.9854 70.8841C13.8468 70.5574 13.7352 70.1597 13.7352 69.9992C13.7352 69.838 13.5966 69.314 13.4274 68.8311C13.2582 68.3517 13.1217 67.7858 13.1217 67.5741C13.1217 67.364 12.9888 66.6368 12.8246 65.9579C12.4251 64.282 12 59.941 12 57.5081C12 55.0781 12.4251 50.737 12.8246 49.0619C12.9881 48.3823 13.1217 47.6416 13.1217 47.4144C13.1217 47.1864 13.2248 46.7397 13.3492 46.4202C13.4772 46.1021 13.6407 45.5304 13.716 45.1505C13.7942 44.7706 13.9719 44.1158 14.1162 43.6912L14.5356 42.4655C14.8434 41.5473 15.1292 40.7704 15.2657 40.4679C15.3439 40.2989 15.6488 39.6087 15.946 38.934C16.4265 37.844 17.4565 35.7882 18.0586 34.7123C18.2783 34.3182 18.3615 34.1876 19.55 32.332C21.4331 29.3864 24.6511 25.7214 27.6467 23.1089C28.7023 22.1878 32.2289 19.5135 32.3874 19.5135C32.4315 19.5135 32.7642 19.3139 33.1288 19.0697C34.0864 18.4291 35.0254 17.8852 36.2495 17.2723C36.6889 17.0552 37.124 16.8296 37.5546 16.5956C37.7572 16.4791 38.1375 16.3044 40.0903 15.431C40.5203 15.2392 40.9838 15.0646 42.3195 14.598C42.6138 14.4957 43.2052 14.2792 43.6275 14.1208C44.0526 13.9631 44.5523 13.8325 44.7386 13.8325C44.922 13.8325 45.4046 13.7047 45.8105 13.547C46.2157 13.3887 46.9515 13.2083 47.4484 13.1472C47.9431 13.089 48.6007 12.9505 48.9092 12.8419C49.2148 12.7368 50.0536 12.6004 50.7723 12.5401C51.709 12.4555 52.6432 12.3454 53.5738 12.2098C55.4846 11.9301 59.6389 11.9301 61.5297 12.2098C62.4228 12.3379 63.319 12.4432 64.2175 12.5258C64.8949 12.5819 65.7586 12.7233 66.1389 12.8397C66.5193 12.9533 67.1775 13.0954 67.5998 13.1472C68.022 13.2033 68.7329 13.378 69.1793 13.5385C69.6271 13.7018 70.1347 13.8325 70.3095 13.8325C70.4844 13.8325 70.8455 13.9298 71.1093 14.0519C71.3758 14.1712 71.9395 14.3708 72.3646 14.4957C72.7869 14.6236 73.5112 14.8757 73.9783 15.0617C74.4418 15.2471 75.0638 15.4913 75.3609 15.6021C75.9083 15.8081 79.953 17.8298 80.5032 18.1742C84.9681 20.9558 87.2649 22.773 90.3529 25.96C94.0764 29.8046 96.548 33.4661 99.0637 38.8559C99.2415 39.2366 99.513 39.7997 99.6687 40.1043C99.8215 40.4125 99.9495 40.7733 99.9495 40.9068C99.9495 41.0417 100.077 41.4465 100.235 41.8079C100.663 42.79 101.029 43.9078 101.202 44.762C101.287 45.181 101.446 45.6994 101.554 45.9132C101.663 46.1262 101.79 46.668 101.84 47.1119C101.89 47.555 102.037 48.2821 102.162 48.7231C102.887 51.2306 103.248 58.618 102.809 61.8853C102.679 62.8561 102.532 64.0299 102.482 64.4929C102.398 65.2861 101.979 67.3363 101.621 68.7146L101.251 70.1739C100.554 72.9839 98.8327 76.9869 96.7307 80.6902C95.8976 82.1602 93.1046 86.1354 92.5772 86.6013C92.5295 86.6425 92.2935 86.9208 92.0547 87.2141C91.8158 87.511 91.0495 88.3404 90.3557 89.0562C87.2983 92.2099 84.8324 94.1599 80.5032 96.8456C79.99 97.1644 75.636 99.2891 74.8221 99.6193C74.3998 99.7883 73.6946 100.074 73.256 100.251C72.8203 100.427 72.3341 100.574 72.1812 100.577C72.0284 100.579 71.6261 100.715 71.287 100.878C70.9486 101.042 70.5178 101.178 70.3266 101.181C70.1375 101.184 69.5852 101.317 69.099 101.478C68.6134 101.641 67.9381 101.816 67.599 101.868C67.2607 101.922 66.5363 102.066 65.9861 102.188C65.4366 102.31 63.7753 102.549 62.2989 102.718C59.0053 103.101 55.6778 103.094 52.386 102.696ZM55.7291 93.819C55.9424 93.6528 56.162 93.3219 56.2203 93.0897C56.3483 92.5763 77.0016 51.2135 77.3904 50.6952C77.7181 50.257 77.7487 49.5554 77.4487 49.3083C77.2909 49.1755 75.3133 49.1336 70.0344 49.1421C66.075 49.1506 62.746 49.1535 62.6373 49.1506C62.4766 49.1449 62.4432 46.5019 62.4595 35.181C62.4709 27.4996 62.4347 21.1447 62.3792 21.0566C62.3238 20.9671 62.107 20.8954 61.8958 20.8954C61.5987 20.8954 61.4601 21.0232 61.2774 21.4692C60.9326 22.2986 59.9801 24.1819 55.3431 33.1756C54.38 35.0421 53.4191 36.9097 52.4606 38.7785C51.6389 40.3848 50.3423 42.9065 49.5838 44.3814C47.5422 48.3462 45.5049 52.3132 43.4718 56.2824C39.9651 63.1252 39.5408 63.9411 39.3901 64.1215C39.0986 64.4737 38.9401 65.2861 39.1043 65.5915C39.2536 65.8713 39.5514 65.8826 46.9543 65.8713C51.186 65.8663 54.6764 65.8883 54.7126 65.921C54.81 66.0211 54.7737 92.4158 54.6735 93.045C54.6074 93.4583 54.6515 93.677 54.8406 93.8659C55.1676 94.1932 55.2571 94.1904 55.7291 93.819Z"/>
</mask>
<path d="M52.386 102.696C51.0332 102.534 49.6143 102.326 49.234 102.233C48.6743 102.1 48.1114 101.982 47.5457 101.878C46.8997 101.752 46.2588 101.602 45.6243 101.428C42.6778 100.584 42.4667 100.516 40.2452 99.608C38.2015 98.7757 34.4361 96.8314 33.148 95.9465C32.7954 95.7023 32.4656 95.5056 32.4151 95.5056C32.3654 95.5056 31.5408 94.9261 30.5825 94.2181C24.4905 89.7138 19.9168 84.2458 16.612 77.511C16.0434 76.3542 15.5792 75.328 15.5792 75.2314C15.5792 75.1363 15.4768 74.8728 15.3517 74.6513C15.0937 74.1904 14.7261 73.1976 14.4297 72.1715C14.3023 71.7355 14.154 71.3059 13.9854 70.8841C13.8468 70.5574 13.7352 70.1597 13.7352 69.9992C13.7352 69.838 13.5966 69.314 13.4274 68.8311C13.2582 68.3517 13.1217 67.7858 13.1217 67.5741C13.1217 67.364 12.9888 66.6368 12.8246 65.9579C12.4251 64.282 12 59.941 12 57.5081C12 55.0781 12.4251 50.737 12.8246 49.0619C12.9881 48.3823 13.1217 47.6416 13.1217 47.4144C13.1217 47.1864 13.2248 46.7397 13.3492 46.4202C13.4772 46.1021 13.6407 45.5304 13.716 45.1505C13.7942 44.7706 13.9719 44.1158 14.1162 43.6912L14.5356 42.4655C14.8434 41.5473 15.1292 40.7704 15.2657 40.4679C15.3439 40.2989 15.6488 39.6087 15.946 38.934C16.4265 37.844 17.4565 35.7882 18.0586 34.7123C18.2783 34.3182 18.3615 34.1876 19.55 32.332C21.4331 29.3864 24.6511 25.7214 27.6467 23.1089C28.7023 22.1878 32.2289 19.5135 32.3874 19.5135C32.4315 19.5135 32.7642 19.3139 33.1288 19.0697C34.0864 18.4291 35.0254 17.8852 36.2495 17.2723C36.6889 17.0552 37.124 16.8296 37.5546 16.5956C37.7572 16.4791 38.1375 16.3044 40.0903 15.431C40.5203 15.2392 40.9838 15.0646 42.3195 14.598C42.6138 14.4957 43.2052 14.2792 43.6275 14.1208C44.0526 13.9631 44.5523 13.8325 44.7386 13.8325C44.922 13.8325 45.4046 13.7047 45.8105 13.547C46.2157 13.3887 46.9515 13.2083 47.4484 13.1472C47.9431 13.089 48.6007 12.9505 48.9092 12.8419C49.2148 12.7368 50.0536 12.6004 50.7723 12.5401C51.709 12.4555 52.6432 12.3454 53.5738 12.2098C55.4846 11.9301 59.6389 11.9301 61.5297 12.2098C62.4228 12.3379 63.319 12.4432 64.2175 12.5258C64.8949 12.5819 65.7586 12.7233 66.1389 12.8397C66.5193 12.9533 67.1775 13.0954 67.5998 13.1472C68.022 13.2033 68.7329 13.378 69.1793 13.5385C69.6271 13.7018 70.1347 13.8325 70.3095 13.8325C70.4844 13.8325 70.8455 13.9298 71.1093 14.0519C71.3758 14.1712 71.9395 14.3708 72.3646 14.4957C72.7869 14.6236 73.5112 14.8757 73.9783 15.0617C74.4418 15.2471 75.0638 15.4913 75.3609 15.6021C75.9083 15.8081 79.953 17.8298 80.5032 18.1742C84.9681 20.9558 87.2649 22.773 90.3529 25.96C94.0764 29.8046 96.548 33.4661 99.0637 38.8559C99.2415 39.2366 99.513 39.7997 99.6687 40.1043C99.8215 40.4125 99.9495 40.7733 99.9495 40.9068C99.9495 41.0417 100.077 41.4465 100.235 41.8079C100.663 42.79 101.029 43.9078 101.202 44.762C101.287 45.181 101.446 45.6994 101.554 45.9132C101.663 46.1262 101.79 46.668 101.84 47.1119C101.89 47.555 102.037 48.2821 102.162 48.7231C102.887 51.2306 103.248 58.618 102.809 61.8853C102.679 62.8561 102.532 64.0299 102.482 64.4929C102.398 65.2861 101.979 67.3363 101.621 68.7146L101.251 70.1739C100.554 72.9839 98.8327 76.9869 96.7307 80.6902C95.8976 82.1602 93.1046 86.1354 92.5772 86.6013C92.5295 86.6425 92.2935 86.9208 92.0547 87.2141C91.8158 87.511 91.0495 88.3404 90.3557 89.0562C87.2983 92.2099 84.8324 94.1599 80.5032 96.8456C79.99 97.1644 75.636 99.2891 74.8221 99.6193C74.3998 99.7883 73.6946 100.074 73.256 100.251C72.8203 100.427 72.3341 100.574 72.1812 100.577C72.0284 100.579 71.6261 100.715 71.287 100.878C70.9486 101.042 70.5178 101.178 70.3266 101.181C70.1375 101.184 69.5852 101.317 69.099 101.478C68.6134 101.641 67.9381 101.816 67.599 101.868C67.2607 101.922 66.5363 102.066 65.9861 102.188C65.4366 102.31 63.7753 102.549 62.2989 102.718C59.0053 103.101 55.6778 103.094 52.386 102.696ZM55.7291 93.819C55.9424 93.6528 56.162 93.3219 56.2203 93.0897C56.3483 92.5763 77.0016 51.2135 77.3904 50.6952C77.7181 50.257 77.7487 49.5554 77.4487 49.3083C77.2909 49.1755 75.3133 49.1336 70.0344 49.1421C66.075 49.1506 62.746 49.1535 62.6373 49.1506C62.4766 49.1449 62.4432 46.5019 62.4595 35.181C62.4709 27.4996 62.4347 21.1447 62.3792 21.0566C62.3238 20.9671 62.107 20.8954 61.8958 20.8954C61.5987 20.8954 61.4601 21.0232 61.2774 21.4692C60.9326 22.2986 59.9801 24.1819 55.3431 33.1756C54.38 35.0421 53.4191 36.9097 52.4606 38.7785C51.6389 40.3848 50.3423 42.9065 49.5838 44.3814C47.5422 48.3462 45.5049 52.3132 43.4718 56.2824C39.9651 63.1252 39.5408 63.9411 39.3901 64.1215C39.0986 64.4737 38.9401 65.2861 39.1043 65.5915C39.2536 65.8713 39.5514 65.8826 46.9543 65.8713C51.186 65.8663 54.6764 65.8883 54.7126 65.921C54.81 66.0211 54.7737 92.4158 54.6735 93.045C54.6074 93.4583 54.6515 93.677 54.8406 93.8659C55.1676 94.1932 55.2571 94.1904 55.7291 93.819Z" fill="black" stroke="white" stroke-width="6" mask="url(#path-2-inside-1_393_27)"/>
</svg>
