<svg width="115" height="115" viewBox="0 0 115 115" fill="none" xmlns="http://www.w3.org/2000/svg">
<path d="M104 1H11C5.47715 1 1 5.47715 1 11V104C1 109.523 5.47715 114 11 114H104C109.523 114 114 109.523 114 104V11C114 5.47715 109.523 1 104 1Z" fill="black" stroke="white" stroke-width="2"/>
<path d="M45.9231 16.5059L57.0979 35.0557L57.5276 35.7676L57.9553 35.0547L69.0901 16.5068L85.2444 16.5039L57.6106 64.4365L29.7571 16.5L45.9231 16.5059Z" fill="black" stroke="white"/>
<path d="M57.1631 65.6888L57.5977 66.4359L58.0283 65.6869L86.3838 16.5062L104.13 16.5248L57.5918 96.392L10.8691 16.6263L28.5859 16.5052L57.1631 65.6888Z" fill="white" stroke="black"/>
</svg>
